<svg width="150" height="41" viewBox="0 0 150 41" fill="none" xmlns="http://www.w3.org/2000/svg">
<g clip-path="url(#clip0_1_9)">
<path d="M141.984 19.7835L150 41C147.65 40.6778 145.255 40.2176 142.859 39.8494L138.345 28.1136L133.692 38.883C131.434 38.5148 129.177 38.3767 126.873 38.1006L135.028 19.5534L127.657 0.5H134.521L138.667 11.1313L143.09 0.5H150L141.984 19.7835ZM122.267 0.5H116.047V37.2722C118.074 37.4102 120.193 37.5023 122.267 37.7324V0.5ZM110.703 36.858C105.037 36.4898 99.3704 36.1216 93.6118 36.0295V0.5H99.9232V30.0466C103.563 30.1386 107.202 30.4148 110.703 30.5989V36.858ZM86.8397 14.9051V21.2102H78.1787V35.6153H71.9134V0.5H89.6499V6.80511H78.1787V14.8591H86.8397V14.9051ZM61.2715 6.80511V35.9375C59.1523 35.9375 56.9871 35.9375 54.914 36.0295V6.80511H48.3722V0.5H67.8593V6.80511H61.2715ZM41.5541 21.5324C38.7899 21.5324 35.473 21.5324 33.1235 21.6705V31.0591C36.855 30.783 40.5405 30.5068 44.3182 30.3688V36.4437L26.812 37.8244V0.5H44.3182V6.80511H33.1235V15.3193C35.5651 15.3193 39.3428 15.1813 41.5541 15.1813V21.5324ZM6.44963 17.9886V40.0795C4.19226 40.3557 2.16523 40.6778 0 41V0.5H6.03501L14.2813 23.5114V0.5H20.6388V38.3767C18.3814 38.7449 16.1241 38.883 13.7285 39.2051L6.44963 17.9886Z" fill="#E50914"/>
</g>
<defs>
<clipPath id="clip0_1_9">
<rect width="150" height="40.5" fill="white" transform="translate(0 0.5)"/>
</clipPath>
</defs>
</svg>
